<?xml version="1.0" standalone="no"?>
<!DOCTYPE svg PUBLIC "-//W3C//DTD SVG 20010904//EN"
 "http://www.w3.org/TR/2001/REC-SVG-20010904/DTD/svg10.dtd">
<svg version="1.0" xmlns="http://www.w3.org/2000/svg"
 width="1024.000000pt" height="1024.000000pt" viewBox="0 0 1024.000000 1024.000000"
 preserveAspectRatio="xMidYMid meet">

<g transform="translate(0.000000,1024.000000) scale(0.100000,-0.100000)"
fill="#000000" stroke="none">
<path d="M0 5120 l0 -5120 5120 0 5120 0 0 5120 0 5120 -5120 0 -5120 0 0
-5120z m5349 3576 c26 -23 27 -58 4 -78 -15 -12 -63 -17 -253 -22 -326 -8
-597 -48 -862 -127 -495 -147 -834 -331 -1243 -673 -164 -137 -185 -146 -220
-93 -26 40 -6 67 135 186 257 218 421 326 711 472 480 241 1000 360 1550 355
139 -1 159 -3 178 -20z m284 -10 c54 -22 72 -51 72 -113 0 -49 -3 -58 -33 -84
-27 -24 -41 -29 -83 -29 -44 0 -55 4 -79 30 -52 56 -46 140 15 188 32 25 62
28 108 8z m624 -200 c27 -30 33 -44 33 -82 0 -41 -5 -51 -39 -85 -31 -31 -46
-39 -76 -39 -75 0 -125 54 -125 135 0 40 5 52 35 82 33 33 39 35 87 31 44 -5
57 -11 85 -42z m-937 -46 c25 -25 25 -42 3 -62 -14 -12 -60 -17 -228 -21 -307
-9 -504 -38 -775 -113 -441 -124 -950 -414 -1277 -727 -33 -32 -56 -47 -64
-42 -7 5 -10 4 -6 -2 9 -14 -19 -37 -33 -28 -6 3 -10 -3 -10 -16 0 -35 -8 -18
-14 31 -6 42 -5 44 9 26 8 -11 15 -15 15 -9 0 7 -7 18 -15 26 -12 13 -4 24 68
89 456 414 993 696 1527 802 238 48 372 61 618 64 150 2 163 1 182 -18z m334
-61 c102 -80 54 -239 -72 -239 -120 0 -177 150 -86 229 28 26 43 31 83 31 34
0 56 -6 75 -21z m793 -22 c-9 -55 -67 -195 -83 -201 -43 -16 -42 26 1 139 31
82 41 95 68 95 17 0 19 -5 14 -33z m172 -51 c9 -11 4 -34 -25 -105 -45 -113
-65 -141 -88 -122 -22 18 -21 24 24 124 52 118 65 133 89 103z m-1279 -59 c19
-10 25 -20 25 -47 l0 -35 -205 -7 c-113 -3 -243 -11 -289 -17 -61 -8 -88 -7
-98 0 -17 15 -17 75 1 82 19 7 226 27 321 30 192 7 221 6 245 -6z m680 -73
c191 -61 325 -116 518 -213 262 -131 383 -209 637 -412 152 -122 189 -184 150
-258 -14 -28 -52 -64 -91 -87 -17 -10 -13 -18 56 -90 378 -398 649 -933 744
-1469 40 -224 46 -296 46 -540 0 -257 -13 -385 -59 -600 -55 -259 -139 -484
-269 -725 -143 -265 -323 -493 -598 -759 -179 -173 -303 -271 -384 -304 l-55
-22 -782 -3 -783 -3 0 -562 c0 -425 -3 -566 -12 -575 -16 -16 -43 -15 -56 1
-8 9 -12 204 -14 636 l-3 622 817 -1 817 -2 58 31 c129 69 465 380 625 579
112 140 263 362 313 462 122 243 212 528 262 835 22 138 25 579 5 720 -78 537
-243 957 -523 1333 -207 276 -447 508 -729 703 -374 258 -873 440 -1315 480
-162 14 -413 5 -593 -22 -143 -22 -162 -19 -162 25 0 39 15 46 126 61 60 9
132 23 159 32 77 26 422 22 615 -7 530 -78 1008 -291 1438 -639 165 -134 168
-136 197 -123 14 6 33 28 42 47 l17 35 -40 41 c-107 111 -334 274 -566 406
-233 134 -412 210 -687 292 -166 50 -183 61 -163 107 12 24 16 26 55 21 23 -3
107 -27 187 -53z m780 26 c0 -28 -86 -196 -103 -203 -43 -16 -35 39 19 138 33
61 51 85 65 85 12 0 19 -7 19 -20z m-2102 -41 c2 -27 -1 -38 -14 -43 -35 -13
-60 44 -32 72 22 22 43 9 46 -29z m-124 5 c22 -8 21 -63 0 -71 -36 -13 -68 33
-44 62 14 17 21 18 44 9z m-111 -46 c8 -28 -9 -58 -33 -58 -24 0 -38 44 -20
65 18 22 47 18 53 -7z m2510 -20 c14 -22 -91 -193 -118 -193 -36 0 -27 38 31
128 55 86 68 96 87 65z m-2642 -25 c7 -18 7 -34 1 -43 -5 -8 -51 -30 -103 -50
-251 -95 -599 -301 -905 -535 -56 -43 -86 -60 -95 -54 -8 5 -17 3 -21 -4 -5
-7 -6 -1 -4 13 2 15 10 24 19 24 13 -1 13 2 4 16 -9 16 -4 25 37 61 196 175
569 411 821 519 66 28 134 57 150 65 51 23 84 19 96 -12z m2827 -105 c6 -30
-106 -178 -134 -178 -34 0 -24 34 32 116 45 65 63 84 78 82 12 -2 22 -11 24
-20z m-2593 -58 c0 -31 -3 -35 -25 -35 -19 0 -26 6 -28 23 -5 36 5 54 30 50
19 -2 23 -9 23 -38z m-120 -21 c11 -16 -3 -56 -21 -63 -9 -4 -23 -1 -30 5 -15
12 -19 51 -7 62 10 11 51 8 58 -4z m-140 -69 c0 -29 -4 -36 -23 -38 -26 -4
-37 17 -28 54 5 19 12 25 29 22 18 -2 22 -9 22 -38z m3023 28 c14 -14 5 -32
-55 -107 -59 -73 -73 -84 -90 -70 -22 19 -15 39 45 115 56 72 77 85 100 62z
m-1777 -36 c299 -59 497 -126 750 -253 277 -140 530 -323 761 -551 140 -138
236 -255 360 -438 114 -167 114 -167 92 -191 -26 -29 -58 -23 -90 14 -16 19
-68 90 -116 158 -203 289 -464 545 -756 740 -492 329 -1022 479 -1552 439
-209 -16 -220 -16 -231 2 -14 21 -10 64 5 77 24 20 170 29 426 27 199 -3 265
-7 351 -24z m-1353 -39 c2 -24 -1 -33 -17 -38 -29 -9 -41 1 -41 34 0 34 8 43
35 39 14 -2 21 -12 23 -35z m-126 -30 c41 -37 22 -66 -87 -137 -152 -98 -534
-356 -538 -363 -3 -5 51 -9 121 -9 113 0 136 -3 207 -27 105 -37 173 -82 272
-183 66 -67 91 -102 127 -176 64 -130 79 -197 78 -348 -1 -143 -21 -239 -72
-341 -137 -273 -356 -408 -663 -409 -70 0 -81 -3 -103 -25 l-25 -25 3 -263 3
-263 32 -65 c39 -78 62 -102 145 -143 69 -34 84 -62 52 -97 -23 -26 -55 -24
-115 6 -108 55 -177 146 -204 271 -13 57 -16 122 -13 331 l3 261 31 39 c53 64
80 75 223 84 192 11 291 51 401 158 62 62 122 158 165 266 23 58 29 90 33 186
6 142 -5 193 -66 319 -63 130 -162 230 -289 292 l-88 43 -165 0 c-114 0 -172
4 -187 13 -58 33 -70 101 -26 152 33 40 680 470 707 470 11 0 28 -7 38 -17z
m565 -19 c26 -40 9 -54 -113 -94 -60 -20 -163 -62 -229 -93 -66 -30 -120 -55
-121 -54 0 1 1 23 4 49 4 46 6 49 58 79 64 36 329 138 361 139 13 0 30 -11 40
-26z m2876 -16 c22 -27 22 -49 -4 -82 -34 -43 -100 -29 -110 24 -14 72 66 113
114 58z m-4831 -95 c35 -31 10 -93 -38 -93 -48 0 -70 55 -37 92 20 22 51 23
75 1z m2543 -8 c14 -13 25 -31 25 -39 0 -30 -23 -65 -49 -76 -73 -30 -134 59
-79 117 29 31 72 30 103 -2z m-207 -27 c18 -18 15 -66 -5 -76 -10 -5 -58 -12
-108 -16 -49 -4 -145 -18 -213 -32 -133 -27 -152 -25 -152 22 0 31 29 48 119
69 161 39 337 55 359 33z m571 -34 c351 -91 628 -227 910 -447 123 -96 295
-263 306 -296 8 -25 -17 -61 -43 -61 -8 0 -49 33 -91 73 -247 235 -518 419
-769 522 -136 55 -351 120 -466 139 -48 9 -94 21 -102 27 -14 12 -19 70 -7 82
16 16 99 4 262 -39z m2098 -10 c4 -12 -17 -40 -74 -95 -44 -44 -85 -79 -91
-79 -6 0 -17 10 -23 22 -11 21 -6 28 67 95 79 73 109 87 121 57z m-4779 -109
c-3 -3 -9 2 -12 12 -6 14 -5 15 5 6 7 -7 10 -15 7 -18z m1450 -7 c7 -7 12 -22
12 -34 0 -19 -21 -33 -119 -83 -66 -34 -126 -61 -134 -61 -11 0 -14 10 -12 36
3 43 1 42 104 103 84 51 126 62 149 39z m-1761 -35 c21 -16 48 -51 61 -77 l24
-47 204 2 c221 2 234 -1 234 -50 0 -49 -8 -51 -242 -51 l-218 0 -16 -26 c-22
-33 -104 -74 -149 -74 -77 0 -157 64 -171 135 -10 54 1 119 25 153 54 76 176
94 248 35z m2767 -18 c522 -88 1042 -406 1354 -827 134 -181 198 -293 273
-480 167 -414 212 -893 120 -1253 -57 -225 -178 -508 -237 -554 -24 -19 -30
-20 -48 -8 -34 23 -30 49 23 156 108 215 165 394 191 605 17 135 7 450 -18
581 -47 242 -139 503 -230 655 -236 394 -500 643 -887 835 -254 126 -475 190
-746 217 -259 25 -545 -26 -801 -144 l-67 -30 -25 28 c-32 38 -24 47 79 95
316 147 645 188 1019 124z m2480 10 c6 -18 -159 -164 -187 -165 -23 0 -33 26
-16 46 28 34 161 134 179 134 10 0 20 -7 24 -15z m-321 -190 c172 -199 313
-407 417 -617 43 -87 80 -163 82 -170 3 -9 49 9 147 55 78 38 158 71 177 74
33 5 36 4 32 -18 -2 -20 -31 -38 -183 -112 -98 -48 -188 -89 -200 -90 -15 -1
-25 9 -40 42 -133 292 -314 571 -522 805 -24 26 -43 55 -43 64 0 22 31 53 49
50 8 -2 46 -39 84 -83z m526 50 c16 -8 36 -30 45 -49 15 -31 15 -39 3 -69 -43
-102 -169 -100 -197 4 -14 50 -7 71 31 104 35 28 76 32 118 10z m-2915 -46
c14 -11 26 -29 26 -39 0 -37 -37 -47 -169 -48 -68 0 -156 -6 -195 -12 -119
-20 -276 -64 -336 -95 -44 -23 -64 -19 -77 14 -14 38 -8 45 59 75 131 58 305
101 468 116 157 14 195 12 224 -11z m-883 -46 c13 -16 12 -17 -3 -4 -10 7 -18
15 -18 17 0 8 8 3 21 -13z m3629 -36 c0 -34 -22 -63 -68 -86 -26 -14 -42 -7
-42 19 0 17 85 100 103 100 4 0 7 -15 7 -33z m-2362 -56 c20 -11 53 -36 72
-56 53 -56 82 -67 187 -70 95 -4 153 -24 166 -60 11 -28 108 -94 162 -110 71
-20 114 -59 158 -142 41 -78 61 -99 135 -139 64 -34 94 -67 117 -131 49 -135
66 -162 131 -213 97 -76 107 -102 114 -296 l5 -160 42 -65 c23 -35 49 -81 58
-101 23 -55 19 -145 -11 -245 -23 -77 -25 -98 -18 -168 4 -44 8 -114 8 -156
l1 -76 -58 -86 c-32 -48 -63 -100 -68 -117 -6 -16 -15 -27 -20 -24 -5 3 -9 -2
-9 -10 0 -9 -5 -16 -11 -16 -5 0 -8 -4 -4 -9 3 -5 0 -13 -7 -17 -7 -4 -9 -3
-5 1 4 5 -3 15 -15 22 -13 7 -17 12 -10 13 6 0 12 8 12 18 0 15 -2 15 -11 2
-8 -12 -10 -12 -8 5 3 36 -1 46 -13 39 -8 -5 -9 -2 -5 10 4 10 7 21 7 26 0 4
23 38 50 76 68 93 74 121 55 239 -20 128 -20 142 15 247 37 112 37 131 1 199
-100 185 -96 171 -94 309 1 69 -2 140 -8 157 -6 19 -37 57 -73 90 -77 72 -96
99 -130 190 -34 91 -55 117 -123 155 -66 37 -107 77 -135 132 -39 77 -58 95
-143 135 -48 23 -108 62 -140 91 -70 63 -88 70 -181 70 -87 0 -129 18 -184 75
-42 45 -85 65 -140 65 -76 0 -112 38 -86 89 9 16 21 32 28 35 25 11 150 -4
186 -23z m-2436 -87 c29 -27 88 -81 131 -121 l77 -71 -35 -52 c-62 -93 -77
-185 -54 -331 7 -38 17 -73 24 -79 6 -5 9 -25 7 -44 -4 -31 -8 -35 -50 -46
-230 -58 -420 -328 -503 -715 -22 -100 -24 -134 -24 -365 1 -227 3 -267 23
-360 48 -222 141 -454 238 -596 26 -38 115 -157 198 -264 83 -107 194 -252
248 -322 l97 -127 -32 -23 c-18 -12 -46 -32 -64 -45 -23 -18 -33 -21 -39 -12
-4 8 -3 9 4 5 14 -9 26 36 18 67 -3 12 -45 72 -93 133 -229 289 -353 452 -406
532 -158 235 -255 536 -278 862 -25 358 25 650 157 917 55 111 77 146 142 214
91 97 167 149 252 173 50 14 60 20 55 34 -43 104 -43 211 0 317 l28 70 -104
97 -104 98 -95 0 c-104 0 -140 13 -140 52 0 48 22 56 150 54 l119 -2 53 -50z
m1954 31 c24 -24 25 -28 11 -48 -12 -19 -29 -23 -126 -34 -130 -13 -233 -34
-333 -69 -40 -13 -79 -24 -89 -24 -19 0 -53 46 -44 59 18 31 243 100 410 126
122 20 142 19 171 -10z m168 -10 c20 -31 20 -44 -1 -67 -22 -25 -59 -23 -77 4
-20 29 -20 30 5 62 26 33 52 33 73 1z m2944 3 c7 -7 12 -17 12 -23 0 -12 -211
-155 -228 -155 -5 0 -15 7 -22 16 -17 20 -2 35 115 113 97 64 105 67 123 49z
m-4530 -32 c6 -27 -6 -46 -23 -40 -15 6 -21 45 -8 58 11 10 28 1 31 -18z m-90
-13 c-4 -39 -28 -42 -28 -4 0 21 5 31 16 31 11 0 14 -8 12 -27z m176 1 c8 -30
8 -31 -19 -36 -11 -2 -20 2 -19 10 1 6 2 21 3 32 2 29 28 25 35 -6z m-1368 0
c30 -4 80 -44 56 -44 -7 0 -12 -5 -12 -11 0 -5 5 -7 10 -4 6 3 10 0 10 -8 0
-17 -54 -27 -162 -29 -72 -2 -98 10 -98 46 1 61 48 73 196 50z m1112 -15 c2
-10 -6 -19 -18 -22 -16 -4 -20 0 -20 20 0 18 5 24 17 21 10 -2 19 -10 21 -19z
m345 -2 c6 -17 -29 -59 -47 -55 -13 3 -13 7 -1 36 14 32 39 43 48 19z m-429
-34 c4 -9 0 -23 -8 -31 -12 -12 -16 -12 -25 7 -7 12 -9 26 -6 31 10 16 32 12
39 -7z m496 -22 c0 -39 -25 -60 -46 -39 -14 14 -14 18 1 42 23 35 45 34 45 -3z
m-179 -41 c80 -25 133 -62 181 -125 55 -72 71 -130 66 -229 -6 -106 -39 -176
-113 -245 -77 -70 -146 -94 -250 -89 -160 9 -280 110 -322 271 -30 119 -2 227
84 318 98 105 224 140 354 99z m239 5 c17 -21 7 -40 -24 -43 -26 -2 -32 10
-20 42 8 20 28 21 44 1z m4412 -54 c28 -25 33 -36 32 -71 -2 -60 -37 -93 -98
-93 -63 0 -96 30 -96 89 0 32 6 49 29 73 39 42 88 43 133 2z m-4432 -6 c-7 -9
-15 -13 -19 -10 -3 3 1 10 9 15 21 14 24 12 10 -5z m43 -27 c-21 -23 -33 -23
-33 0 0 27 20 43 35 29 11 -10 10 -15 -2 -29z m1327 17 c52 -8 141 -28 198
-45 250 -74 439 -186 617 -365 178 -177 281 -331 356 -531 149 -393 134 -808
-41 -1189 -39 -85 -136 -239 -169 -269 -18 -16 -21 -16 -58 11 l-39 27 47 62
c55 73 149 259 183 364 198 604 -27 1262 -552 1613 -107 72 -205 119 -334 161
-154 51 -222 61 -408 61 -233 0 -385 -36 -607 -142 l-102 -48 -6 47 c-4 26 -4
52 0 58 8 13 98 59 182 93 72 29 277 84 360 96 93 14 271 12 373 -4z m-3162
-35 c29 -13 51 -34 72 -67 l30 -48 352 -4 c221 -2 358 -7 366 -13 19 -16 14
-55 -10 -72 -19 -14 -72 -16 -369 -16 l-346 0 -26 -39 c-33 -49 -96 -76 -163
-68 -164 18 -203 249 -56 327 47 24 96 25 150 0z m1901 -25 c0 -5 -6 -1 -14 9
-14 18 -15 16 -15 -26 0 -26 -3 -49 -8 -52 -4 -2 -17 13 -29 34 l-21 39 32 19
c28 17 32 17 43 3 7 -9 12 -20 12 -26z m3000 -82 c18 -21 22 -34 17 -62 -7
-46 -38 -71 -86 -71 -77 0 -106 85 -50 142 26 25 36 29 63 24 18 -3 43 -18 56
-33z m-1721 -43 c61 -11 144 -32 184 -46 103 -37 238 -103 244 -119 3 -7 -17
-47 -44 -87 -27 -40 -62 -97 -77 -126 -15 -29 -31 -55 -36 -58 -16 -9 -10 -19
23 -38 17 -11 67 -53 111 -95 l79 -76 25 30 26 29 34 -39 c66 -76 148 -211
181 -299 l33 -89 -33 -34 c-54 -56 -178 -147 -187 -137 -9 11 -35 114 -30 119
2 1 32 19 67 39 34 21 62 42 62 48 0 16 -47 106 -97 185 l-46 73 -41 -33 c-23
-18 -71 -54 -108 -80 l-66 -47 -32 31 c-17 17 -29 37 -25 43 3 6 30 40 60 76
l54 65 -25 26 c-14 15 -65 50 -115 79 -49 29 -92 57 -95 62 -3 5 19 52 49 106
46 81 97 180 97 188 0 7 -114 48 -202 73 -251 70 -433 61 -682 -35 -50 -19
-118 -50 -153 -68 -35 -19 -63 -30 -63 -25 0 5 -11 4 -24 -1 -19 -7 -24 -6
-22 6 1 8 5 13 8 12 3 -2 12 3 21 11 15 12 15 16 2 41 -15 28 -14 29 33 55 53
30 181 84 257 109 144 47 377 58 553 26z m-1273 -30 c20 17 19 7 -4 -30 l-18
-31 -7 32 c-9 47 -7 69 5 40 8 -19 12 -21 24 -11z m-5 -80 c0 -5 -4 -10 -10
-10 -5 0 -10 5 -10 10 0 6 5 10 10 10 6 0 10 -4 10 -10z m5 -40 c31 -12 24
-30 -11 -30 -17 0 -24 5 -24 20 0 23 0 23 35 10z m3059 -22 c8 -13 6 -22 -8
-37 -37 -41 -75 -19 -62 35 5 20 12 25 33 22 14 -2 31 -11 37 -20z m-1959 -9
c55 -14 122 -70 146 -123 48 -105 -2 -252 -98 -292 -56 -24 -63 -20 -63 35 0
43 5 54 35 84 30 30 35 42 35 80 0 37 -6 51 -30 75 -30 31 -84 47 -116 36 -34
-12 -74 -57 -80 -89 -7 -41 27 -111 61 -127 22 -10 25 -18 25 -62 l0 -51 -87
-17 c-257 -50 -467 -254 -539 -523 -15 -54 -19 -103 -18 -215 0 -128 3 -154
26 -223 106 -319 405 -523 738 -504 220 12 429 121 555 289 94 126 150 273
157 412 l3 66 125 0 c101 0 189 -7 368 -30 6 0 1 -89 -5 -93 -5 -3 -55 1 -113
9 -58 7 -141 13 -186 14 l-80 0 -22 -92 c-39 -160 -106 -295 -197 -396 l-47
-52 38 -53 c20 -28 72 -95 114 -147 88 -108 118 -161 126 -224 6 -43 6 -44
-42 -80 -71 -51 -158 -96 -188 -96 -15 0 -30 8 -36 21 -21 37 -4 62 67 103
116 66 114 53 21 175 -45 58 -104 134 -132 167 l-50 62 -31 -24 c-41 -31 -139
-75 -245 -110 -77 -25 -99 -28 -235 -28 -129 -1 -161 2 -230 22 -149 43 -299
133 -389 232 -58 64 -144 201 -171 273 -83 220 -70 509 31 710 102 201 247
333 449 408 33 12 61 23 63 24 1 1 -7 22 -18 46 -25 56 -26 141 -1 194 46 99
149 143 266 114z m-670 -37 c-3 -3 -11 0 -18 7 -9 10 -8 11 6 5 10 -3 15 -9
12 -12z m2890 12 c19 -8 45 -55 45 -82 0 -50 -67 -90 -117 -71 -52 19 -65 113
-19 144 21 16 63 19 91 9z m-1495 -55 c0 -3 -37 -48 -82 -99 -73 -83 -83 -91
-94 -75 -15 20 2 52 85 162 l46 62 23 -21 c12 -12 22 -25 22 -29z m2608 5 c2
-16 -8 -25 -45 -41 -267 -118 -355 -154 -370 -151 -10 2 -19 13 -21 25 -4 26
-15 20 228 123 91 38 174 69 185 67 12 -1 21 -11 23 -23z m-4440 -33 c3 -9 -2
-9 -22 0 -14 7 -26 16 -26 20 0 12 43 -6 48 -20z m-2084 -11 c16 -16 17 -21 5
-46 -26 -54 -99 -41 -99 17 0 57 49 72 94 29z m2052 -20 c8 0 14 -4 14 -10 0
-12 -20 -13 -39 -1 -9 6 -11 15 -6 27 8 18 8 18 12 2 3 -10 11 -18 19 -18z
m1964 -5 l24 -26 -91 -90 c-82 -82 -92 -90 -112 -80 -11 7 -21 16 -21 22 0 11
160 197 171 198 3 1 16 -10 29 -24z m1679 -44 c76 -143 166 -453 206 -706 22
-136 30 -459 16 -620 -35 -398 -177 -815 -386 -1130 -147 -222 -374 -468 -595
-644 -149 -120 -196 -135 -219 -69 -6 17 -11 32 -11 34 0 2 51 41 113 87 246
183 448 393 617 645 194 286 296 555 367 967 25 147 25 539 0 690 -43 251
-105 473 -188 672 -44 104 -46 118 -21 132 39 24 65 9 101 -58z m-455 2 c58
-88 167 -451 202 -670 22 -141 29 -433 15 -576 -33 -314 -170 -688 -353 -963
-107 -159 -178 -243 -297 -350 -121 -109 -199 -163 -326 -228 -315 -159 -692
-169 -938 -25 -138 82 -251 220 -272 331 l-7 37 36 -6 c27 -4 36 -2 36 8 0 7
20 -21 45 -64 86 -146 207 -233 388 -279 108 -27 333 -22 446 11 128 38 228
80 308 133 471 307 781 853 834 1468 27 312 -33 689 -162 1016 -53 136 -59
167 -31 183 31 19 51 12 76 -26z m-4409 -3 c3 -5 -17 -51 -44 -101 -154 -278
-231 -608 -231 -982 0 -350 71 -659 230 -1007 87 -188 133 -264 270 -439 131
-167 137 -180 98 -205 -29 -18 -61 10 -162 146 -166 224 -275 420 -366 661
-204 542 -207 1149 -7 1659 94 238 134 297 175 256 9 -9 12 -8 12 5 0 19 15
23 25 7z m1992 -35 c16 -47 17 -46 -87 -101 -77 -40 -190 -136 -255 -216 -26
-32 -51 -58 -56 -58 -19 0 -79 35 -79 45 0 15 41 76 89 132 75 89 309 247 355
241 12 -2 24 -17 33 -43z m-772 25 c7 -11 -36 -24 -62 -17 -14 4 -14 5 5 6 12
0 22 6 22 11 0 13 27 13 35 0z m-1517 -23 c16 0 17 5 -27 -100 -59 -139 -104
-289 -140 -462 -38 -183 -57 -495 -42 -664 25 -266 83 -545 149 -713 16 -40
37 -98 47 -128 10 -30 38 -95 62 -143 24 -48 41 -93 37 -99 -4 -6 -3 -8 3 -5
6 4 13 0 16 -8 4 -10 1 -12 -11 -8 -9 4 -20 11 -23 16 -4 5 -9 5 -13 -2 -4 -6
-3 -11 2 -11 5 0 7 -12 4 -26 -3 -15 1 -29 7 -34 7 -4 13 -13 15 -21 5 -31 18
-59 27 -59 5 0 9 -8 9 -19 0 -10 11 -30 25 -45 23 -25 70 -106 62 -106 -10 0
-121 178 -175 280 -163 308 -272 654 -312 992 -16 136 -14 545 4 670 29 205
106 479 185 662 20 45 23 48 49 41 15 -4 33 -8 40 -8z m3578 -28 c19 -21 18
-21 -50 -85 -72 -68 -86 -74 -106 -48 -12 13 -3 25 56 85 37 38 71 69 75 69 3
0 14 -9 25 -21z m-2108 -7 c2 -7 -3 -12 -12 -12 -9 0 -16 -7 -16 -15 0 -9 -6
-12 -15 -9 -8 4 -15 10 -15 15 0 5 7 9 15 9 8 0 15 7 15 16 0 17 22 14 28 -4z
m-648 -5 c0 -7 12 -14 27 -15 15 -1 31 -6 36 -11 4 -4 -37 -44 -91 -89 -250
-204 -360 -400 -394 -697 -16 -145 5 -264 72 -400 69 -142 128 -213 286 -350
124 -108 150 -137 246 -270 354 -493 485 -605 900 -769 238 -94 469 -148 701
-162 110 -6 117 -8 102 -24 -14 -15 -14 -18 0 -30 8 -7 32 -18 52 -26 l38 -13
-71 -1 c-115 0 -321 19 -429 41 -293 59 -644 201 -833 337 -174 124 -277 235
-460 493 -128 180 -185 246 -300 341 -159 134 -234 226 -306 379 -56 119 -76
195 -83 325 -11 186 22 345 105 509 81 163 149 245 307 378 83 69 95 76 95 54z
m5235 -27 c19 -37 67 -269 95 -458 39 -269 47 -636 19 -857 -9 -68 -13 -81
-29 -81 -10 0 -16 6 -13 13 3 7 10 10 17 7 6 -3 0 4 -13 16 -19 16 -26 18 -32
8 -7 -10 -9 -10 -9 0 0 30 -28 8 -38 -30 -9 -35 -9 -26 -4 52 14 187 7 607
-12 750 -19 147 -66 396 -90 475 -30 95 -13 135 55 135 33 0 41 -5 54 -30z
m-6361 -12 c14 -1 26 -6 26 -10 0 -4 -16 -51 -35 -105 -139 -385 -175 -843
-105 -1328 20 -144 82 -393 129 -525 17 -47 28 -93 25 -103 -3 -10 4 -34 15
-53 22 -37 27 -64 12 -64 -5 0 -7 -9 -4 -20 3 -11 2 -27 -1 -37 -6 -14 -9 -13
-20 9 -71 137 -183 488 -220 691 -36 195 -46 324 -46 587 0 323 23 500 99 762
47 163 71 221 85 208 7 -5 25 -11 40 -12z m-289 -18 c17 -18 17 -22 2 -62 -9
-24 -21 -74 -27 -112 -6 -38 -20 -114 -31 -170 -34 -171 -50 -331 -56 -576 -5
-214 4 -419 23 -520 5 -29 4 -33 -7 -22 -7 6 -17 12 -22 12 -4 0 -5 -6 -1 -12
5 -9 2 -9 -9 1 -14 11 -17 11 -17 0 -1 -10 -5 -9 -14 4 -12 16 -14 16 -20 1
-3 -8 -6 -32 -7 -52 -2 -71 -16 8 -34 188 -21 212 -17 597 9 785 22 153 62
351 87 423 10 30 19 64 19 74 0 57 66 81 105 38z m1985 -6 c0 -8 -4 -12 -10
-9 -5 3 -10 10 -10 16 0 5 5 9 10 9 6 0 10 -7 10 -16z m3613 -12 c31 -34 119
-399 143 -591 18 -147 18 -474 0 -611 -25 -187 -94 -434 -172 -615 -117 -275
-259 -482 -478 -698 -180 -178 -241 -224 -411 -306 -290 -142 -298 -143 -980
-141 -744 1 -808 8 -1175 120 -284 87 -444 100 -590 50 -173 -59 -326 -206
-391 -377 -13 -35 -28 -63 -32 -63 -5 0 -6 4 -2 9 3 5 1 12 -4 15 -5 3 -7 16
-5 29 2 12 2 16 -2 9 -9 -18 -24 -4 -17 16 3 9 3 14 -1 11 -4 -4 -9 -17 -11
-29 -6 -30 -15 -39 -15 -14 0 10 23 66 51 123 44 89 64 117 138 191 186 186
392 236 706 170 55 -11 134 -31 175 -45 83 -27 232 -65 355 -90 44 -9 163 -21
265 -25 252 -12 1003 -12 1119 0 116 12 268 62 381 124 45 25 87 46 92 46 5 0
17 9 26 21 15 18 37 25 90 31 7 1 10 8 7 16 -3 8 0 12 7 9 7 -2 12 -9 11 -15
-2 -6 8 -6 28 1 25 10 27 13 12 19 -13 6 -10 7 10 5 18 -3 27 0 27 10 0 8 5
11 10 8 6 -3 10 -1 10 4 0 6 -6 11 -14 11 -25 0 -25 37 -1 60 19 18 25 19 32
8 12 -21 44 -31 36 -12 -3 8 1 14 8 14 7 0 5 6 -6 14 -11 8 -24 12 -30 8 -5
-3 31 37 80 89 172 182 333 437 429 681 34 86 91 310 117 458 30 165 36 455
15 620 -20 150 -56 315 -102 467 -19 62 -34 124 -34 137 0 43 62 62 93 28z
m-1339 -21 l15 -28 -77 -61 -77 -61 -14 26 c-13 26 -12 28 55 89 38 35 72 63
76 64 4 0 14 -13 22 -29z m2111 -31 c0 -22 -8 -27 -67 -44 -55 -16 -70 -17
-82 -6 -24 19 -20 26 32 48 89 38 117 38 117 2z m-4659 -22 c4 -6 -1 -17 -11
-25 -11 -7 -13 -13 -6 -13 7 0 10 -4 7 -9 -4 -5 -30 -12 -59 -16 -120 -17
-209 -70 -297 -178 -57 -69 -121 -195 -140 -272 -19 -80 -14 -230 9 -305 42
-133 97 -204 333 -425 90 -85 121 -123 204 -250 138 -214 220 -318 331 -426
166 -161 311 -255 533 -347 206 -86 354 -121 521 -123 l95 -1 13 -32 c8 -17
21 -39 29 -49 22 -25 11 -30 -61 -28 -293 6 -647 120 -917 295 -227 148 -381
301 -540 541 -137 206 -207 291 -341 410 -180 162 -245 259 -289 430 -35 137
-21 311 35 445 63 151 177 281 293 337 92 44 242 68 258 41z m2624 -73 c7 -14
11 -27 9 -29 -16 -15 -134 -86 -143 -86 -6 0 -17 9 -24 21 -15 23 -20 17 78
86 55 39 63 40 80 8z m-919 -112 c142 -49 277 -166 346 -299 55 -105 73 -177
73 -291 l0 -93 -55 0 -55 0 6 43 c10 68 -13 184 -51 266 -46 97 -143 195 -238
240 -227 108 -518 9 -627 -212 -44 -90 -65 -211 -50 -294 40 -234 202 -391
450 -440 l65 -12 -77 4 c-63 4 -89 1 -134 -16 l-57 -22 -45 22 c-146 71 -259
213 -297 373 -19 82 -19 228 0 303 25 99 90 219 153 284 64 65 183 132 280
156 78 20 239 14 313 -12z m3019 7 c13 -25 -5 -35 -94 -51 -51 -8 -71 -8 -79
0 -29 29 40 69 120 70 32 1 45 -4 53 -19z m-2040 -19 c18 -34 11 -46 -37 -66
-27 -11 -62 -27 -80 -36 l-32 -16 -11 31 c-6 17 -7 32 -3 34 4 1 35 18 68 37
70 40 81 42 95 16z m-2217 -138 c15 -7 27 -16 27 -19 0 -3 -11 -43 -24 -88
-37 -121 -48 -198 -48 -326 0 -167 21 -267 101 -473 10 -25 8 -29 -22 -47 -17
-11 -37 -20 -43 -20 -14 0 -64 110 -97 215 -63 201 -59 491 10 702 29 91 29
90 96 56z m2272 -25 c7 -25 4 -27 -57 -46 -34 -11 -78 -23 -95 -27 -31 -6 -33
-5 -33 23 0 26 5 32 43 46 132 50 131 50 142 4z m2015 -3 c19 -22 5 -43 -32
-49 -104 -16 -117 -16 -132 0 -22 22 -20 30 12 42 60 24 135 27 152 7z m-3161
-15 c113 -19 208 -85 268 -188 33 -55 36 -121 9 -151 -21 -23 -65 -28 -70 -8
-21 73 -45 117 -86 158 -131 131 -339 93 -419 -75 -27 -58 -34 -66 -58 -66
-44 0 -57 14 -55 58 5 113 100 221 231 263 66 21 94 22 180 9z m-949 -30 c38
-19 38 -20 25 -48 -32 -64 -48 -166 -49 -312 -1 -128 3 -156 26 -242 61 -218
190 -404 381 -547 41 -32 56 -49 52 -60 -4 -9 -9 -28 -12 -43 -3 -16 -10 -25
-18 -22 -12 5 -145 -167 -145 -188 0 -4 21 -18 47 -31 25 -12 48 -27 50 -32 2
-6 -10 -26 -26 -45 l-29 -35 -58 29 c-124 60 -279 172 -364 263 -108 116 -247
325 -294 443 -81 203 -116 441 -97 665 6 69 16 146 22 171 11 42 13 44 48 44
63 0 65 -5 47 -110 -18 -108 -21 -322 -5 -435 37 -272 154 -495 383 -733 64
-66 154 -142 170 -142 3 0 36 41 74 91 l69 92 -102 101 c-113 111 -167 186
-225 309 -118 248 -136 505 -55 784 17 60 26 63 85 33z m-602 -42 c29 -29 7
-78 -35 -78 -31 0 -46 32 -31 64 12 28 45 35 66 14z m2726 -50 c3 -17 2 -36
-2 -40 -8 -8 -202 -37 -249 -38 -18 0 -23 6 -23 24 0 14 5 28 11 32 10 6 220
52 245 53 6 1 14 -13 18 -31z m2014 -74 c4 -26 -11 -33 -88 -41 -45 -4 -59 -2
-74 12 -9 9 -15 22 -13 29 4 13 65 24 127 22 38 -1 45 -4 48 -22z m-4750 -70
c4 -37 -18 -59 -52 -50 -51 13 -30 90 22 84 22 -2 28 -9 30 -34z m2752 1 c0
-18 -35 -28 -80 -23 -39 4 -51 25 -18 31 55 10 98 7 98 -8z m2012 -112 c17
-18 23 -36 23 -70 0 -38 -5 -49 -33 -74 -52 -46 -117 -37 -147 21 -22 43 -19
84 10 119 39 46 106 48 147 4z m-4747 -49 c32 -34 32 -58 0 -89 -32 -33 -68
-32 -94 1 -27 35 -26 59 4 89 31 32 60 32 90 -1z m2615 -129 l95 -21 -3 -29
c-2 -17 -6 -32 -8 -35 -3 -2 -42 4 -87 13 -45 10 -110 23 -144 30 -58 10 -63
13 -63 37 0 15 3 30 7 33 9 9 85 -1 203 -28z m2095 -89 c13 -20 14 -39 5 -137
-24 -264 -91 -566 -170 -777 -44 -117 -60 -146 -90 -162 -17 -9 -25 -6 -45 14
-14 14 -25 32 -25 39 0 8 18 59 39 113 56 141 86 248 126 435 33 160 55 325
55 417 0 54 21 82 61 82 19 0 34 -8 44 -24z m-2183 -46 c68 -22 129 -44 136
-49 17 -10 -2 -61 -23 -61 -18 0 -256 89 -268 100 -13 11 2 50 18 50 8 0 69
-18 137 -40z m-41 -145 l130 -66 -18 -29 c-9 -17 -21 -30 -26 -30 -5 0 -63 32
-128 71 -113 66 -135 89 -112 112 11 12 20 8 154 -58z m-2403 -43 c5 -32 -15
-52 -49 -52 -25 0 -29 4 -29 28 0 36 18 54 50 50 17 -2 26 -10 28 -26z m1550
8 c-9 -6 -38 -12 -65 -15 l-48 -5 55 14 c70 17 79 18 58 6z m760 -80 c146
-100 140 -94 120 -127 -9 -15 -21 -28 -27 -28 -5 0 -62 43 -125 95 -108 89
-114 96 -99 113 21 22 25 20 131 -53z m589 -22 c-3 -7 -5 -2 -5 12 0 14 2 19
5 13 2 -7 2 -19 0 -25z m1890 -10 c-3 -8 -6 -5 -6 6 -1 11 2 17 5 13 3 -3 4
-12 1 -19z m110 -15 c-3 -10 -5 -4 -5 12 0 17 2 24 5 18 2 -7 2 -21 0 -30z
m-4863 5 c7 -27 -5 -41 -30 -36 -23 4 -31 37 -12 49 22 14 35 10 42 -13z
m2204 -92 l107 -104 -23 -25 -23 -24 -100 103 c-90 94 -111 128 -92 147 14 14
28 4 131 -97z m-3049 47 c21 -45 69 -102 206 -243 152 -157 181 -194 336 -430
64 -96 153 -220 199 -275 75 -89 87 -100 113 -97 17 1 37 -4 46 -12 9 -8 32
-18 51 -23 34 -9 32 -10 -79 -48 -186 -64 -337 -166 -462 -312 -52 -60 -53
-61 -70 -42 -12 15 -18 16 -22 7 -3 -7 -6 -4 -6 7 -1 35 57 122 124 186 80 77
132 114 224 159 39 19 71 38 71 42 0 4 -21 31 -48 60 -75 84 -167 209 -254
346 -113 178 -153 228 -308 387 -106 109 -144 156 -174 213 -21 41 -36 75 -34
76 11 7 55 25 64 25 6 1 16 -11 23 -26z m5588 5 c-3 -8 -6 -5 -6 6 -1 11 2 17
5 13 3 -3 4 -12 1 -19z m-1890 -25 c-3 -10 -5 -4 -5 12 0 17 2 24 5 18 2 -7 2
-21 0 -30z m-2810 -19 c4 -11 -1 -22 -12 -30 -26 -19 -33 -18 -40 7 -11 34 39
56 52 23z m52 -77 c8 -11 5 -19 -13 -36 l-24 -23 -12 22 c-10 18 -8 24 7 36
23 17 28 17 42 1z m2279 -139 c33 -33 4 -88 -46 -88 -25 0 -46 45 -32 70 16
30 57 39 78 18z m-2188 -17 c0 -24 -15 -35 -36 -27 -12 4 -13 10 -4 26 14 26
40 26 40 1z m60 -80 c0 -26 -17 -36 -36 -21 -11 10 -12 16 -3 26 17 20 39 17
39 -5z m2781 -50 c16 -16 29 -39 29 -51 0 -31 -53 -80 -86 -80 -69 0 -102 97
-48 139 37 29 70 26 105 -8z m-2703 -29 c5 -15 -23 -26 -45 -17 -17 6 -17 7 2
21 21 16 37 14 43 -4z m1372 -55 c0 -153 87 -257 216 -257 104 0 298 101 444
232 71 64 101 72 125 34 21 -31 13 -46 -58 -113 -108 -103 -323 -227 -436
-253 -174 -40 -332 58 -380 236 l-11 41 -63 -14 c-43 -10 -105 -14 -204 -11
-167 4 -181 10 -157 69 l15 37 167 5 c126 3 184 9 237 25 106 30 105 31 105
-31z m1125 -137 c23 -25 14 -62 -20 -80 -22 -12 -27 -11 -45 5 -22 20 -27 64
-8 83 18 18 53 14 73 -8z m-194 -99 c35 -36 37 -64 4 -96 -39 -40 -96 -32
-120 16 -20 38 -19 42 11 78 33 40 66 40 105 2z m-1709 2 c22 -20 23 -51 1
-75 -20 -22 -41 -23 -65 -1 -21 19 -23 45 -6 73 16 24 45 26 70 3z m-1082 -43
c0 -5 -2 -10 -4 -10 -3 0 -8 5 -11 10 -3 6 -1 10 4 10 6 0 11 -4 11 -10z
m1264 4 c42 -16 40 -71 -4 -94 -44 -24 -85 31 -56 75 17 25 32 30 60 19z m244
-21 c20 -28 15 -80 -10 -97 -71 -50 -148 44 -87 105 24 24 75 20 97 -8z m2924
-13 c25 -26 29 -36 24 -63 -7 -36 -47 -77 -75 -77 -27 0 -68 36 -75 65 -7 29
15 79 41 94 30 18 53 12 85 -19z m-4980 -52 c-7 -7 -12 -8 -12 -2 0 6 3 14 7
17 3 4 9 5 12 2 2 -3 -1 -11 -7 -17z m3144 -23 c19 -29 12 -57 -20 -74 -50
-27 -92 20 -67 75 15 34 64 33 87 -1z m-711 -65 c0 -7 -6 -15 -12 -17 -8 -3
-13 4 -13 17 0 13 5 20 13 18 6 -3 12 -11 12 -18z m503 4 c30 -20 29 -59 -3
-80 -30 -20 -63 -10 -76 23 -20 53 31 91 79 57z m-428 -53 c0 -23 -16 -36 -25
-21 -9 14 1 40 15 40 5 0 10 -9 10 -19z m245 -11 c9 -28 -2 -58 -23 -62 -46
-10 -73 23 -52 62 15 27 66 28 75 0z m-160 -26 c0 -10 -8 -20 -17 -22 -18 -3
-26 27 -11 42 12 11 28 0 28 -20z m2254 -20 c27 -34 26 -50 -4 -79 -45 -45
-105 -22 -105 41 0 64 69 88 109 38z m-5114 -74 c-3 -5 -12 -10 -20 -10 -8 0
-17 5 -20 10 -4 6 5 10 20 10 15 0 24 -4 20 -10z m523 -70 c-3 -22 -1 -27 11
-22 12 4 12 0 -3 -16 -11 -12 -23 -22 -28 -22 -11 0 -10 37 1 44 4 3 6 18 3
32 -4 20 -2 25 8 19 6 -4 10 -20 8 -35z m-372 -14 c37 -37 41 -59 20 -111 -17
-39 -42 -55 -89 -55 -43 0 -82 30 -97 74 -13 41 -2 75 36 105 41 33 89 28 130
-13z m4819 -36 c45 -49 10 -130 -55 -130 -58 0 -92 88 -50 130 27 27 81 26
105 0z m-4485 -26 c0 -14 -39 0 -43 16 -5 18 -4 18 19 3 13 -8 24 -17 24 -19z
m-43 -31 c-9 -2 -14 -9 -11 -15 4 -7 2 -8 -5 -4 -15 10 -4 26 17 25 15 -1 15
-2 -1 -6z m1166 -157 c305 -103 370 -116 652 -126 127 -5 272 -9 324 -9 78 -1
92 -3 88 -16 -4 -8 -2 -17 3 -20 6 -4 11 4 11 17 2 22 2 22 7 -2 l5 -25 8 25
c7 24 7 24 8 3 1 -25 16 -31 24 -10 3 6 6 2 6 -10 1 -23 21 -43 21 -21 0 9 2
10 8 2 4 -7 18 -14 32 -17 14 -2 -110 -6 -275 -7 -406 -4 -408 -4 -423 -14 -9
-5 -13 -25 -12 -55 7 -134 -1 -711 -9 -707 -5 4 -7 -3 -4 -14 5 -18 -5 -25
-29 -21 -5 0 -7 -2 -6 -7 0 -4 -2 -14 -5 -22 -3 -8 -8 -26 -10 -40 -2 -14 -5
178 -6 426 l-1 451 -47 12 c-140 35 -223 60 -370 112 -249 89 -337 107 -452
90 -98 -15 -175 -58 -260 -146 -41 -41 -76 -74 -78 -72 -6 7 9 37 18 37 5 0 9
4 9 8 0 5 -7 9 -15 9 -8 0 -11 -5 -8 -10 4 -6 0 -8 -10 -4 -10 4 -17 0 -20
-11 -3 -11 -5 -8 -6 8 -1 29 45 103 60 95 5 -4 9 -1 9 5 0 7 7 10 15 6 8 -3
15 -1 15 5 0 17 28 40 33 29 3 -6 4 -5 3 2 -2 7 -12 12 -22 11 -49 -4 107 85
181 104 32 8 95 11 177 9 l127 -4 224 -76z m-1897 25 c52 -24 74 -55 74 -104
0 -115 -124 -165 -207 -82 -27 27 -33 40 -33 78 0 52 27 92 74 113 40 17 43
17 92 -5z m5040 -23 c4 -7 3 -8 -4 -4 -7 4 -12 2 -12 -4 0 -6 -4 -8 -10 -5 -5
3 -16 -6 -22 -21 -10 -22 -10 -28 0 -32 7 -2 18 -10 25 -17 9 -10 14 -9 23 3
6 8 16 12 22 8 21 -12 13 -24 -20 -31 -26 -6 -35 -3 -50 15 -22 28 -23 58 -1
82 18 21 39 23 49 6z m-4722 -14 c34 -33 9 -88 -38 -82 -35 4 -51 26 -42 61 9
36 54 48 80 21z m443 -40 c-3 -3 -12 -4 -19 -1 -8 3 -5 6 6 6 11 1 17 -2 13
-5z m4333 -9 c0 -8 -4 -15 -10 -15 -5 0 -10 7 -10 15 0 8 5 15 10 15 6 0 10
-7 10 -15z m-1025 -31 c27 -30 31 -54 13 -87 -28 -54 -93 -64 -127 -21 -29 37
-27 79 5 109 36 33 78 33 109 -1z m-2650 -74 c-19 -21 -45 -27 -45 -10 0 6 9
10 19 10 11 0 23 5 26 10 3 6 9 10 12 10 3 0 -2 -9 -12 -20z m122 -2 c-3 -8
-6 -5 -6 6 -1 11 2 17 5 13 3 -3 4 -12 1 -19z m3339 -45 c-3 -4 -6 -1 -6 7 0
10 -3 10 -15 0 -18 -15 -20 -5 -2 14 10 12 13 12 20 -1 5 -8 6 -17 3 -20z
m-49 13 c-3 -8 -3 -17 1 -21 4 -4 7 -12 7 -18 0 -7 8 -11 18 -9 21 4 22 -14 1
-22 -9 -4 -14 -13 -10 -22 3 -8 2 -13 -3 -10 -5 3 -11 -4 -14 -16 -4 -12 -8
-20 -11 -17 -3 3 -54 -42 -113 -99 -59 -56 -137 -125 -173 -152 -119 -91 -54
-84 -923 -88 -529 -2 -773 1 -787 8 -23 12 -28 68 -8 88 9 9 188 12 745 12
469 0 749 4 780 10 65 14 138 64 282 193 137 123 201 177 208 177 3 0 3 -6 0
-14z m-3290 -43 c-3 -10 -5 -2 -5 17 0 19 2 27 5 18 2 -10 2 -26 0 -35z m103
5 c0 -10 -4 -18 -10 -18 -5 0 -10 15 -10 33 0 24 3 28 10 17 5 -8 10 -23 10
-32z m-1299 5 c66 -34 99 -85 99 -156 0 -155 -165 -237 -281 -140 -37 31 -69
95 -69 138 0 66 65 156 126 175 48 14 68 11 125 -17z m4579 12 c0 -2 -6 -5
-13 -8 -8 -3 -14 1 -14 8 0 7 6 11 14 8 7 -3 13 -6 13 -8z m-2817 -43 c9 -9
19 -29 22 -44 6 -22 1 -33 -23 -58 -38 -38 -66 -38 -103 -1 -38 38 -38 74 0
112 26 26 32 28 59 18 17 -6 37 -18 45 -27z m2777 34 c0 -2 -9 -6 -20 -9 -11
-3 -18 -1 -14 4 5 9 34 13 34 5z m-3430 -378 c3 -196 7 -358 10 -361 3 -2 24
-14 47 -25 107 -55 131 -176 53 -266 -40 -45 -79 -60 -141 -54 -90 9 -149 74
-149 165 0 62 17 100 60 136 l30 26 0 365 0 365 28 4 c61 9 57 34 62 -355z
m-620 282 c-6 -24 -9 -54 -5 -67 4 -16 2 -22 -5 -18 -6 3 -10 -4 -11 -17 -1
-18 -2 -19 -6 -5 -5 20 26 161 34 153 2 -2 -1 -23 -7 -46z m706 3 c-11 -11
-17 4 -9 23 7 18 8 18 11 1 2 -10 1 -21 -2 -24z m104 12 c0 -8 -4 -15 -10 -15
-5 0 -10 7 -10 15 0 8 5 15 10 15 6 0 10 -7 10 -15z m-745 -15 c-3 -10 -10
-48 -14 -82 -8 -58 -9 -60 -10 -18 -1 44 15 120 25 120 3 0 3 -9 -1 -20z m863
-5 c-3 -3 -9 2 -12 12 -6 14 -5 15 5 6 7 -7 10 -15 7 -18z m119 -27 c-3 -7 -5
-2 -5 12 0 14 2 19 5 13 2 -7 2 -19 0 -25z m-122 2 c3 -5 1 -10 -4 -10 -6 0
-11 5 -11 10 0 6 2 10 4 10 3 0 8 -4 11 -10z m-218 -32 c-3 -7 -5 -2 -5 12 0
14 2 19 5 13 2 -7 2 -19 0 -25z m242 -250 c-1 -150 -4 -259 -8 -243 -7 29 -7
29 -15 8 -4 -13 -11 -23 -16 -23 -5 0 -11 -10 -13 -22 -2 -13 -5 90 -5 227 0
148 3 242 8 230 7 -15 9 -8 11 30 l2 50 7 -45 6 -45 8 53 c5 28 10 52 12 52 2
0 3 -123 3 -272z m-489 252 c0 -5 -2 -10 -4 -10 -3 0 -8 5 -11 10 -3 6 -1 10
4 10 6 0 11 -4 11 -10z m350 0 c0 -5 -2 -10 -4 -10 -3 0 -8 5 -11 10 -3 6 -1
10 4 10 6 0 11 -4 11 -10z m240 -6 c0 -8 -4 -12 -10 -9 -5 3 -10 10 -10 16 0
5 5 9 10 9 6 0 10 -7 10 -16z m-2 -54 c0 -16 -4 -30 -9 -30 -5 0 -8 14 -7 30
1 17 5 30 9 30 3 0 6 -13 7 -30z m-238 -21 c0 -5 -4 -9 -10 -9 -5 0 -10 7 -10
16 0 8 5 12 10 9 6 -3 10 -10 10 -16z m-461 -25 c28 -35 26 -69 -4 -99 -30
-31 -62 -32 -92 -3 -45 42 -13 128 47 128 19 0 36 -9 49 -26z m111 -14 c0 -5
-2 -10 -4 -10 -3 0 -8 5 -11 10 -3 6 -1 10 4 10 6 0 11 -4 11 -10z m590 -31
c0 -10 -4 -19 -10 -19 -5 0 -10 12 -10 26 0 14 4 23 10 19 6 -3 10 -15 10 -26z
m-240 11 c0 -5 -4 -10 -10 -10 -5 0 -10 5 -10 10 0 6 5 10 10 10 6 0 10 -4 10
-10z m460 -201 c0 -177 -2 -213 -16 -226 -8 -9 -13 -22 -9 -30 4 -11 1 -13
-10 -9 -9 3 -14 2 -12 -2 2 -4 -2 -20 -9 -37 -11 -26 -13 7 -14 236 0 146 3
269 7 272 3 4 19 7 35 7 l28 0 0 -211z m-465 141 c3 -5 1 -10 -4 -10 -6 0 -11
5 -11 10 0 6 2 10 4 10 3 0 8 -4 11 -10z m245 -15 c0 -8 -4 -15 -10 -15 -5 0
-10 7 -10 15 0 8 5 15 10 15 6 0 10 -7 10 -15z m0 -55 c0 -5 -4 -10 -10 -10
-5 0 -10 5 -10 10 0 6 5 10 10 10 6 0 10 -4 10 -10z m0 -80 c0 -5 -4 -10 -10
-10 -5 0 -10 5 -10 10 0 6 5 10 10 10 6 0 10 -4 10 -10z m2043 -72 c9 0 17 -4
17 -9 0 -6 -5 -7 -10 -4 -6 3 -5 -6 2 -20 7 -15 14 -22 16 -16 2 6 8 9 13 5 5
-3 9 -1 9 5 0 5 -4 13 -10 16 -5 3 -10 1 -10 -6 0 -7 -2 -10 -5 -7 -3 3 -2 13
1 22 5 14 9 15 15 4 5 -7 13 -14 19 -14 5 -1 14 -2 19 -3 5 0 11 -10 14 -20 5
-19 -7 -22 -30 -8 -23 14 -14 -10 9 -25 18 -12 19 -16 7 -23 -8 -4 -11 -5 -7
0 10 11 -22 34 -47 34 -18 0 -18 -1 3 -9 12 -5 22 -15 21 -22 0 -10 -2 -10 -6
0 -2 6 -9 12 -14 12 -6 0 -7 -4 -4 -10 10 -17 -7 -11 -22 8 -8 9 -12 12 -9 6
3 -7 -4 -14 -15 -17 -12 -3 -254 -6 -538 -7 -556 -1 -543 -2 -556 52 -5 20 -1
32 16 49 l22 22 531 -8 c292 -4 539 -8 549 -7z m-2010 -190 c53 -28 63 -84 21
-123 -34 -32 -58 -32 -89 0 -33 33 -32 70 4 106 33 33 34 33 64 17z m1242 -72
c14 -20 14 -29 4 -48 -7 -13 -17 -26 -23 -30 -18 -12 -266 -6 -266 6 0 6 -5 4
-10 -4 -7 -11 -10 -11 -10 -2 0 7 -5 10 -10 7 -18 -11 -40 16 -40 47 0 22 4
29 15 25 8 -4 17 -1 21 5 5 7 2 8 -6 3 -9 -5 -11 -4 -6 3 5 8 56 12 161 12
153 0 155 0 170 -24z m-839 -354 c-11 -10 -15 4 -8 28 l7 25 3 -23 c2 -13 1
-26 -2 -30z"/>
<path d="M5557 8612 c-22 -24 -21 -45 1 -65 23 -21 46 -22 66 -1 21 21 20 40
-4 64 -25 25 -42 25 -63 2z"/>
<path d="M6131 8446 c-20 -24 -9 -69 21 -85 24 -14 28 -14 47 3 12 11 21 29
21 41 0 44 -63 73 -89 41z"/>
<path d="M2950 7536 c0 -2 8 -10 18 -17 15 -13 16 -12 3 4 -13 16 -21 21 -21
13z"/>
<path d="M5537 8312 c-34 -38 -9 -102 39 -102 33 0 64 29 64 59 0 54 -68 82
-103 43z"/>
<path d="M2445 7285 c-31 -30 -32 -57 -2 -89 45 -51 127 -26 127 39 0 33 -42
75 -75 75 -14 0 -37 -11 -50 -25z"/>
<path d="M7964 7166 c-7 -31 11 -66 36 -66 11 0 27 11 36 25 16 24 16 27 -1
45 -26 28 -63 26 -71 -4z"/>
<path d="M3533 6731 c-63 -16 -122 -60 -153 -113 -37 -65 -45 -115 -30 -178
22 -92 102 -169 198 -191 87 -20 211 54 258 156 40 85 27 166 -39 241 -64 73
-153 105 -234 85z"/>
<path d="M8242 6738 c-18 -18 -14 -46 7 -58 25 -13 48 -4 56 21 12 38 -35 65
-63 37z"/>
<path d="M1987 6622 c-23 -25 -21 -78 3 -102 24 -24 57 -26 88 -4 31 21 31 87
0 108 -30 21 -71 20 -91 -2z"/>
<path d="M6836 3551 c-4 -5 -3 -17 1 -28 6 -16 5 -16 -10 -4 -15 12 -17 12
-11 -3 11 -29 35 -19 32 14 -2 32 -4 35 -12 21z"/>
<path d="M6708 3403 c7 -3 16 -2 19 1 4 3 -2 6 -13 5 -11 0 -14 -3 -6 -6z"/>
<path d="M6440 3264 c0 -9 -5 -12 -12 -8 -8 5 -9 2 -5 -9 3 -10 2 -17 -3 -17
-6 0 -10 5 -10 10 0 7 -6 7 -19 1 -10 -6 -21 -7 -25 -4 -3 3 -6 1 -6 -5 0 -7
-3 -11 -7 -11 -5 1 -21 1 -37 0 -29 -1 -29 -1 -10 -20 10 -10 21 -14 22 -10 2
5 11 9 21 9 9 0 23 6 30 13 11 10 13 9 7 -1 -4 -7 8 -4 29 8 19 11 45 20 56
20 11 0 17 5 14 10 -4 6 -10 8 -15 5 -5 -3 -12 0 -16 6 -4 8 -3 9 4 5 7 -4 12
-2 12 3 0 6 -7 11 -15 11 -8 0 -15 -7 -15 -16z"/>
<path d="M3373 2978 c-13 -28 -15 -70 -3 -63 5 3 8 13 8 23 -1 9 2 27 6 40 4
12 6 22 3 22 -2 0 -8 -10 -14 -22z"/>
<path d="M3376 2875 c-3 -8 -1 -15 4 -15 6 0 10 7 10 15 0 8 -2 15 -4 15 -2 0
-6 -7 -10 -15z"/>
<path d="M8270 5185 c-26 -32 13 -81 48 -59 34 22 22 74 -18 74 -10 0 -23 -7
-30 -15z"/>
<path d="M2816 3334 c-11 -30 -6 -53 15 -64 38 -21 78 37 47 68 -17 17 -55 15
-62 -4z"/>
<path d="M2404 3092 c-15 -9 -34 -47 -34 -66 0 -42 73 -62 103 -28 29 32 21
69 -20 91 -25 13 -34 13 -49 3z"/>
<path d="M6470 3005 c-19 -23 -8 -50 20 -50 19 0 26 6 28 24 5 35 -26 53 -48
26z"/>
<path d="M7280 2895 c7 -9 15 -13 17 -11 7 7 -7 26 -19 26 -6 0 -6 -6 2 -15z"/>
<path d="M7270 2860 c6 -11 13 -20 16 -20 2 0 0 9 -6 20 -6 11 -13 20 -16 20
-2 0 0 -9 6 -20z"/>
<path d="M2691 2774 c-25 -32 -25 -37 -6 -73 25 -49 82 -56 114 -15 27 34 27
64 1 92 -30 32 -82 30 -109 -4z"/>
<path d="M4510 2835 c-17 -21 -8 -50 17 -53 17 -3 24 3 29 22 10 42 -19 63
-46 31z"/>
<path d="M3875 2027 c-50 -42 -24 -117 41 -117 53 0 85 78 47 112 -33 29 -59
30 -88 5z"/>
<path d="M3595 2610 c-10 -16 4 -50 21 -50 11 0 14 8 12 27 -3 28 -22 41 -33
23z"/>
<path d="M6385 2286 c10 -14 19 -26 22 -26 7 0 -17 39 -28 46 -6 3 -3 -5 6
-20z"/>
<path d="M6460 2281 c0 -5 5 -13 10 -16 6 -3 10 -2 10 4 0 5 -4 13 -10 16 -5
3 -10 2 -10 -4z"/>
<path d="M4350 2069 c-10 -17 -9 -23 1 -30 21 -13 34 -5 34 21 0 31 -21 37
-35 9z"/>
</g>
</svg>
